%TF.GenerationSoftware,KiCad,Pcbnew,7.0.10*%
%TF.CreationDate,2024-03-16T13:48:46+09:00*%
%TF.ProjectId,damecan,64616d65-6361-46e2-9e6b-696361645f70,rev?*%
%TF.SameCoordinates,Original*%
%TF.FileFunction,Soldermask,Top*%
%TF.FilePolarity,Negative*%
%FSLAX46Y46*%
G04 Gerber Fmt 4.6, Leading zero omitted, Abs format (unit mm)*
G04 Created by KiCad (PCBNEW 7.0.10) date 2024-03-16 13:48:46*
%MOMM*%
%LPD*%
G01*
G04 APERTURE LIST*
G04 APERTURE END LIST*
G36*
X186275090Y-97199215D02*
G01*
X186462683Y-97256120D01*
X186635570Y-97348530D01*
X186787107Y-97472893D01*
X186911470Y-97624430D01*
X187003880Y-97797317D01*
X187060785Y-97984910D01*
X187080000Y-98180000D01*
X187060785Y-98375090D01*
X187003880Y-98562683D01*
X186911470Y-98735570D01*
X186787107Y-98887107D01*
X186635570Y-99011470D01*
X186462683Y-99103880D01*
X186275090Y-99160785D01*
X186080000Y-99180000D01*
X185884910Y-99160785D01*
X185697317Y-99103880D01*
X185524430Y-99011470D01*
X185372893Y-98887107D01*
X185248530Y-98735570D01*
X185156120Y-98562683D01*
X185099215Y-98375090D01*
X185080000Y-98180000D01*
X185099215Y-97984910D01*
X185156120Y-97797317D01*
X185248530Y-97624430D01*
X185372893Y-97472893D01*
X185524430Y-97348530D01*
X185697317Y-97256120D01*
X185884910Y-97199215D01*
X186080000Y-97180000D01*
X186275090Y-97199215D01*
G37*
G36*
X193895090Y-97199215D02*
G01*
X194082683Y-97256120D01*
X194255570Y-97348530D01*
X194407107Y-97472893D01*
X194531470Y-97624430D01*
X194623880Y-97797317D01*
X194680785Y-97984910D01*
X194700000Y-98180000D01*
X194680785Y-98375090D01*
X194623880Y-98562683D01*
X194531470Y-98735570D01*
X194407107Y-98887107D01*
X194255570Y-99011470D01*
X194082683Y-99103880D01*
X193895090Y-99160785D01*
X193700000Y-99180000D01*
X193504910Y-99160785D01*
X193317317Y-99103880D01*
X193144430Y-99011470D01*
X192992893Y-98887107D01*
X192868530Y-98735570D01*
X192776120Y-98562683D01*
X192719215Y-98375090D01*
X192700000Y-98180000D01*
X192719215Y-97984910D01*
X192776120Y-97797317D01*
X192868530Y-97624430D01*
X192992893Y-97472893D01*
X193144430Y-97348530D01*
X193317317Y-97256120D01*
X193504910Y-97199215D01*
X193700000Y-97180000D01*
X193895090Y-97199215D01*
G37*
G36*
X176307403Y-98516418D02*
G01*
X176356066Y-98548934D01*
X176388582Y-98597597D01*
X176400000Y-98655000D01*
X176400000Y-98955000D01*
X176388582Y-99012403D01*
X176356066Y-99061066D01*
X176307403Y-99093582D01*
X176250000Y-99105000D01*
X174600000Y-99105000D01*
X174542597Y-99093582D01*
X174493934Y-99061066D01*
X174461418Y-99012403D01*
X174450000Y-98955000D01*
X174450000Y-98655000D01*
X174461418Y-98597597D01*
X174493934Y-98548934D01*
X174542597Y-98516418D01*
X174600000Y-98505000D01*
X176250000Y-98505000D01*
X176307403Y-98516418D01*
G37*
G36*
X181257403Y-98516418D02*
G01*
X181306066Y-98548934D01*
X181338582Y-98597597D01*
X181350000Y-98655000D01*
X181350000Y-98955000D01*
X181338582Y-99012403D01*
X181306066Y-99061066D01*
X181257403Y-99093582D01*
X181200000Y-99105000D01*
X179550000Y-99105000D01*
X179492597Y-99093582D01*
X179443934Y-99061066D01*
X179411418Y-99012403D01*
X179400000Y-98955000D01*
X179400000Y-98655000D01*
X179411418Y-98597597D01*
X179443934Y-98548934D01*
X179492597Y-98516418D01*
X179550000Y-98505000D01*
X181200000Y-98505000D01*
X181257403Y-98516418D01*
G37*
G36*
X176307403Y-97246418D02*
G01*
X176356066Y-97278934D01*
X176388582Y-97327597D01*
X176400000Y-97385000D01*
X176400000Y-97685000D01*
X176388582Y-97742403D01*
X176356066Y-97791066D01*
X176307403Y-97823582D01*
X176250000Y-97835000D01*
X174600000Y-97835000D01*
X174542597Y-97823582D01*
X174493934Y-97791066D01*
X174461418Y-97742403D01*
X174450000Y-97685000D01*
X174450000Y-97385000D01*
X174461418Y-97327597D01*
X174493934Y-97278934D01*
X174542597Y-97246418D01*
X174600000Y-97235000D01*
X176250000Y-97235000D01*
X176307403Y-97246418D01*
G37*
G36*
X181257403Y-97246418D02*
G01*
X181306066Y-97278934D01*
X181338582Y-97327597D01*
X181350000Y-97385000D01*
X181350000Y-97685000D01*
X181338582Y-97742403D01*
X181306066Y-97791066D01*
X181257403Y-97823582D01*
X181200000Y-97835000D01*
X179550000Y-97835000D01*
X179492597Y-97823582D01*
X179443934Y-97791066D01*
X179411418Y-97742403D01*
X179400000Y-97685000D01*
X179400000Y-97385000D01*
X179411418Y-97327597D01*
X179443934Y-97278934D01*
X179492597Y-97246418D01*
X179550000Y-97235000D01*
X181200000Y-97235000D01*
X181257403Y-97246418D01*
G37*
G36*
X173400000Y-97400000D02*
G01*
X172400000Y-97400000D01*
X172400000Y-96400000D01*
X173400000Y-96400000D01*
X173400000Y-97400000D01*
G37*
G36*
X158295090Y-95319215D02*
G01*
X158482683Y-95376120D01*
X158655570Y-95468530D01*
X158807107Y-95592893D01*
X158931470Y-95744430D01*
X159023880Y-95917317D01*
X159080785Y-96104910D01*
X159100000Y-96300000D01*
X159080785Y-96495090D01*
X159023880Y-96682683D01*
X158931470Y-96855570D01*
X158807107Y-97007107D01*
X158655570Y-97131470D01*
X158482683Y-97223880D01*
X158295090Y-97280785D01*
X158100000Y-97300000D01*
X157904910Y-97280785D01*
X157717317Y-97223880D01*
X157544430Y-97131470D01*
X157392893Y-97007107D01*
X157268530Y-96855570D01*
X157176120Y-96682683D01*
X157119215Y-96495090D01*
X157100000Y-96300000D01*
X157119215Y-96104910D01*
X157176120Y-95917317D01*
X157268530Y-95744430D01*
X157392893Y-95592893D01*
X157544430Y-95468530D01*
X157717317Y-95376120D01*
X157904910Y-95319215D01*
X158100000Y-95300000D01*
X158295090Y-95319215D01*
G37*
G36*
X160795090Y-95319215D02*
G01*
X160982683Y-95376120D01*
X161155570Y-95468530D01*
X161307107Y-95592893D01*
X161431470Y-95744430D01*
X161523880Y-95917317D01*
X161580785Y-96104910D01*
X161600000Y-96300000D01*
X161580785Y-96495090D01*
X161523880Y-96682683D01*
X161431470Y-96855570D01*
X161307107Y-97007107D01*
X161155570Y-97131470D01*
X160982683Y-97223880D01*
X160795090Y-97280785D01*
X160600000Y-97300000D01*
X160404910Y-97280785D01*
X160217317Y-97223880D01*
X160044430Y-97131470D01*
X159892893Y-97007107D01*
X159768530Y-96855570D01*
X159676120Y-96682683D01*
X159619215Y-96495090D01*
X159600000Y-96300000D01*
X159619215Y-96104910D01*
X159676120Y-95917317D01*
X159768530Y-95744430D01*
X159892893Y-95592893D01*
X160044430Y-95468530D01*
X160217317Y-95376120D01*
X160404910Y-95319215D01*
X160600000Y-95300000D01*
X160795090Y-95319215D01*
G37*
G36*
X163295090Y-95319215D02*
G01*
X163482683Y-95376120D01*
X163655570Y-95468530D01*
X163807107Y-95592893D01*
X163931470Y-95744430D01*
X164023880Y-95917317D01*
X164080785Y-96104910D01*
X164100000Y-96300000D01*
X164080785Y-96495090D01*
X164023880Y-96682683D01*
X163931470Y-96855570D01*
X163807107Y-97007107D01*
X163655570Y-97131470D01*
X163482683Y-97223880D01*
X163295090Y-97280785D01*
X163100000Y-97300000D01*
X162904910Y-97280785D01*
X162717317Y-97223880D01*
X162544430Y-97131470D01*
X162392893Y-97007107D01*
X162268530Y-96855570D01*
X162176120Y-96682683D01*
X162119215Y-96495090D01*
X162100000Y-96300000D01*
X162119215Y-96104910D01*
X162176120Y-95917317D01*
X162268530Y-95744430D01*
X162392893Y-95592893D01*
X162544430Y-95468530D01*
X162717317Y-95376120D01*
X162904910Y-95319215D01*
X163100000Y-95300000D01*
X163295090Y-95319215D01*
G37*
G36*
X168469561Y-95757105D02*
G01*
X168630619Y-95813462D01*
X168775099Y-95904244D01*
X168895756Y-96024901D01*
X168986538Y-96169381D01*
X169042895Y-96330439D01*
X169062000Y-96500000D01*
X169042895Y-96669561D01*
X168986538Y-96830619D01*
X168895756Y-96975099D01*
X168775099Y-97095756D01*
X168630619Y-97186538D01*
X168469561Y-97242895D01*
X168300000Y-97262000D01*
X168130439Y-97242895D01*
X167969381Y-97186538D01*
X167824901Y-97095756D01*
X167704244Y-96975099D01*
X167613462Y-96830619D01*
X167557105Y-96669561D01*
X167538000Y-96500000D01*
X167557105Y-96330439D01*
X167613462Y-96169381D01*
X167704244Y-96024901D01*
X167824901Y-95904244D01*
X167969381Y-95813462D01*
X168130439Y-95757105D01*
X168300000Y-95738000D01*
X168469561Y-95757105D01*
G37*
G36*
X186275090Y-94659215D02*
G01*
X186462683Y-94716120D01*
X186635570Y-94808530D01*
X186787107Y-94932893D01*
X186911470Y-95084430D01*
X187003880Y-95257317D01*
X187060785Y-95444910D01*
X187080000Y-95640000D01*
X187060785Y-95835090D01*
X187003880Y-96022683D01*
X186911470Y-96195570D01*
X186787107Y-96347107D01*
X186635570Y-96471470D01*
X186462683Y-96563880D01*
X186275090Y-96620785D01*
X186080000Y-96640000D01*
X185884910Y-96620785D01*
X185697317Y-96563880D01*
X185524430Y-96471470D01*
X185372893Y-96347107D01*
X185248530Y-96195570D01*
X185156120Y-96022683D01*
X185099215Y-95835090D01*
X185080000Y-95640000D01*
X185099215Y-95444910D01*
X185156120Y-95257317D01*
X185248530Y-95084430D01*
X185372893Y-94932893D01*
X185524430Y-94808530D01*
X185697317Y-94716120D01*
X185884910Y-94659215D01*
X186080000Y-94640000D01*
X186275090Y-94659215D01*
G37*
G36*
X193895090Y-94659215D02*
G01*
X194082683Y-94716120D01*
X194255570Y-94808530D01*
X194407107Y-94932893D01*
X194531470Y-95084430D01*
X194623880Y-95257317D01*
X194680785Y-95444910D01*
X194700000Y-95640000D01*
X194680785Y-95835090D01*
X194623880Y-96022683D01*
X194531470Y-96195570D01*
X194407107Y-96347107D01*
X194255570Y-96471470D01*
X194082683Y-96563880D01*
X193895090Y-96620785D01*
X193700000Y-96640000D01*
X193504910Y-96620785D01*
X193317317Y-96563880D01*
X193144430Y-96471470D01*
X192992893Y-96347107D01*
X192868530Y-96195570D01*
X192776120Y-96022683D01*
X192719215Y-95835090D01*
X192700000Y-95640000D01*
X192719215Y-95444910D01*
X192776120Y-95257317D01*
X192868530Y-95084430D01*
X192992893Y-94932893D01*
X193144430Y-94808530D01*
X193317317Y-94716120D01*
X193504910Y-94659215D01*
X193700000Y-94640000D01*
X193895090Y-94659215D01*
G37*
G36*
X176307403Y-95976418D02*
G01*
X176356066Y-96008934D01*
X176388582Y-96057597D01*
X176400000Y-96115000D01*
X176400000Y-96415000D01*
X176388582Y-96472403D01*
X176356066Y-96521066D01*
X176307403Y-96553582D01*
X176250000Y-96565000D01*
X174600000Y-96565000D01*
X174542597Y-96553582D01*
X174493934Y-96521066D01*
X174461418Y-96472403D01*
X174450000Y-96415000D01*
X174450000Y-96115000D01*
X174461418Y-96057597D01*
X174493934Y-96008934D01*
X174542597Y-95976418D01*
X174600000Y-95965000D01*
X176250000Y-95965000D01*
X176307403Y-95976418D01*
G37*
G36*
X181257403Y-95976418D02*
G01*
X181306066Y-96008934D01*
X181338582Y-96057597D01*
X181350000Y-96115000D01*
X181350000Y-96415000D01*
X181338582Y-96472403D01*
X181306066Y-96521066D01*
X181257403Y-96553582D01*
X181200000Y-96565000D01*
X179550000Y-96565000D01*
X179492597Y-96553582D01*
X179443934Y-96521066D01*
X179411418Y-96472403D01*
X179400000Y-96415000D01*
X179400000Y-96115000D01*
X179411418Y-96057597D01*
X179443934Y-96008934D01*
X179492597Y-95976418D01*
X179550000Y-95965000D01*
X181200000Y-95965000D01*
X181257403Y-95976418D01*
G37*
G36*
X176307403Y-94706418D02*
G01*
X176356066Y-94738934D01*
X176388582Y-94787597D01*
X176400000Y-94845000D01*
X176400000Y-95145000D01*
X176388582Y-95202403D01*
X176356066Y-95251066D01*
X176307403Y-95283582D01*
X176250000Y-95295000D01*
X174600000Y-95295000D01*
X174542597Y-95283582D01*
X174493934Y-95251066D01*
X174461418Y-95202403D01*
X174450000Y-95145000D01*
X174450000Y-94845000D01*
X174461418Y-94787597D01*
X174493934Y-94738934D01*
X174542597Y-94706418D01*
X174600000Y-94695000D01*
X176250000Y-94695000D01*
X176307403Y-94706418D01*
G37*
G36*
X181257403Y-94706418D02*
G01*
X181306066Y-94738934D01*
X181338582Y-94787597D01*
X181350000Y-94845000D01*
X181350000Y-95145000D01*
X181338582Y-95202403D01*
X181306066Y-95251066D01*
X181257403Y-95283582D01*
X181200000Y-95295000D01*
X179550000Y-95295000D01*
X179492597Y-95283582D01*
X179443934Y-95251066D01*
X179411418Y-95202403D01*
X179400000Y-95145000D01*
X179400000Y-94845000D01*
X179411418Y-94787597D01*
X179443934Y-94738934D01*
X179492597Y-94706418D01*
X179550000Y-94695000D01*
X181200000Y-94695000D01*
X181257403Y-94706418D01*
G37*
G36*
X186275090Y-92119215D02*
G01*
X186462683Y-92176120D01*
X186635570Y-92268530D01*
X186787107Y-92392893D01*
X186911470Y-92544430D01*
X187003880Y-92717317D01*
X187060785Y-92904910D01*
X187080000Y-93100000D01*
X187060785Y-93295090D01*
X187003880Y-93482683D01*
X186911470Y-93655570D01*
X186787107Y-93807107D01*
X186635570Y-93931470D01*
X186462683Y-94023880D01*
X186275090Y-94080785D01*
X186080000Y-94100000D01*
X185884910Y-94080785D01*
X185697317Y-94023880D01*
X185524430Y-93931470D01*
X185372893Y-93807107D01*
X185248530Y-93655570D01*
X185156120Y-93482683D01*
X185099215Y-93295090D01*
X185080000Y-93100000D01*
X185099215Y-92904910D01*
X185156120Y-92717317D01*
X185248530Y-92544430D01*
X185372893Y-92392893D01*
X185524430Y-92268530D01*
X185697317Y-92176120D01*
X185884910Y-92119215D01*
X186080000Y-92100000D01*
X186275090Y-92119215D01*
G37*
G36*
X193895090Y-92119215D02*
G01*
X194082683Y-92176120D01*
X194255570Y-92268530D01*
X194407107Y-92392893D01*
X194531470Y-92544430D01*
X194623880Y-92717317D01*
X194680785Y-92904910D01*
X194700000Y-93100000D01*
X194680785Y-93295090D01*
X194623880Y-93482683D01*
X194531470Y-93655570D01*
X194407107Y-93807107D01*
X194255570Y-93931470D01*
X194082683Y-94023880D01*
X193895090Y-94080785D01*
X193700000Y-94100000D01*
X193504910Y-94080785D01*
X193317317Y-94023880D01*
X193144430Y-93931470D01*
X192992893Y-93807107D01*
X192868530Y-93655570D01*
X192776120Y-93482683D01*
X192719215Y-93295090D01*
X192700000Y-93100000D01*
X192719215Y-92904910D01*
X192776120Y-92717317D01*
X192868530Y-92544430D01*
X192992893Y-92392893D01*
X193144430Y-92268530D01*
X193317317Y-92176120D01*
X193504910Y-92119215D01*
X193700000Y-92100000D01*
X193895090Y-92119215D01*
G37*
G36*
X158327060Y-90798990D02*
G01*
X158537525Y-90855384D01*
X158735000Y-90947468D01*
X158913485Y-91072444D01*
X159067556Y-91226515D01*
X159192532Y-91405000D01*
X159284616Y-91602475D01*
X159341010Y-91812940D01*
X159360000Y-92030000D01*
X159341010Y-92247060D01*
X159284616Y-92457525D01*
X159192532Y-92655000D01*
X159067556Y-92833485D01*
X158913485Y-92987556D01*
X158735000Y-93112532D01*
X158537525Y-93204616D01*
X158327060Y-93261010D01*
X158110000Y-93280000D01*
X157892940Y-93261010D01*
X157682475Y-93204616D01*
X157485000Y-93112532D01*
X157306515Y-92987556D01*
X157152444Y-92833485D01*
X157027468Y-92655000D01*
X156935384Y-92457525D01*
X156878990Y-92247060D01*
X156860000Y-92030000D01*
X156878990Y-91812940D01*
X156935384Y-91602475D01*
X157027468Y-91405000D01*
X157152444Y-91226515D01*
X157306515Y-91072444D01*
X157485000Y-90947468D01*
X157682475Y-90855384D01*
X157892940Y-90798990D01*
X158110000Y-90780000D01*
X158327060Y-90798990D01*
G37*
G36*
X179327060Y-90798990D02*
G01*
X179537525Y-90855384D01*
X179735000Y-90947468D01*
X179913485Y-91072444D01*
X180067556Y-91226515D01*
X180192532Y-91405000D01*
X180284616Y-91602475D01*
X180341010Y-91812940D01*
X180360000Y-92030000D01*
X180341010Y-92247060D01*
X180284616Y-92457525D01*
X180192532Y-92655000D01*
X180067556Y-92833485D01*
X179913485Y-92987556D01*
X179735000Y-93112532D01*
X179537525Y-93204616D01*
X179327060Y-93261010D01*
X179110000Y-93280000D01*
X178892940Y-93261010D01*
X178682475Y-93204616D01*
X178485000Y-93112532D01*
X178306515Y-92987556D01*
X178152444Y-92833485D01*
X178027468Y-92655000D01*
X177935384Y-92457525D01*
X177878990Y-92247060D01*
X177860000Y-92030000D01*
X177878990Y-91812940D01*
X177935384Y-91602475D01*
X178027468Y-91405000D01*
X178152444Y-91226515D01*
X178306515Y-91072444D01*
X178485000Y-90947468D01*
X178682475Y-90855384D01*
X178892940Y-90798990D01*
X179110000Y-90780000D01*
X179327060Y-90798990D01*
G37*
G36*
X187000000Y-91050000D02*
G01*
X185000000Y-91050000D01*
X185000000Y-89050000D01*
X187000000Y-89050000D01*
X187000000Y-91050000D01*
G37*
G36*
X188695090Y-89069215D02*
G01*
X188882683Y-89126120D01*
X189055570Y-89218530D01*
X189207107Y-89342893D01*
X189331470Y-89494430D01*
X189423880Y-89667317D01*
X189480785Y-89854910D01*
X189500000Y-90050000D01*
X189480785Y-90245090D01*
X189423880Y-90432683D01*
X189331470Y-90605570D01*
X189207107Y-90757107D01*
X189055570Y-90881470D01*
X188882683Y-90973880D01*
X188695090Y-91030785D01*
X188500000Y-91050000D01*
X188304910Y-91030785D01*
X188117317Y-90973880D01*
X187944430Y-90881470D01*
X187792893Y-90757107D01*
X187668530Y-90605570D01*
X187576120Y-90432683D01*
X187519215Y-90245090D01*
X187500000Y-90050000D01*
X187519215Y-89854910D01*
X187576120Y-89667317D01*
X187668530Y-89494430D01*
X187792893Y-89342893D01*
X187944430Y-89218530D01*
X188117317Y-89126120D01*
X188304910Y-89069215D01*
X188500000Y-89050000D01*
X188695090Y-89069215D01*
G37*
G36*
X191195090Y-89069215D02*
G01*
X191382683Y-89126120D01*
X191555570Y-89218530D01*
X191707107Y-89342893D01*
X191831470Y-89494430D01*
X191923880Y-89667317D01*
X191980785Y-89854910D01*
X192000000Y-90050000D01*
X191980785Y-90245090D01*
X191923880Y-90432683D01*
X191831470Y-90605570D01*
X191707107Y-90757107D01*
X191555570Y-90881470D01*
X191382683Y-90973880D01*
X191195090Y-91030785D01*
X191000000Y-91050000D01*
X190804910Y-91030785D01*
X190617317Y-90973880D01*
X190444430Y-90881470D01*
X190292893Y-90757107D01*
X190168530Y-90605570D01*
X190076120Y-90432683D01*
X190019215Y-90245090D01*
X190000000Y-90050000D01*
X190019215Y-89854910D01*
X190076120Y-89667317D01*
X190168530Y-89494430D01*
X190292893Y-89342893D01*
X190444430Y-89218530D01*
X190617317Y-89126120D01*
X190804910Y-89069215D01*
X191000000Y-89050000D01*
X191195090Y-89069215D01*
G37*
G36*
X184150000Y-84050000D02*
G01*
X181650000Y-84050000D01*
X181650000Y-81050000D01*
X184150000Y-81050000D01*
X184150000Y-84050000D01*
G37*
G36*
X195350000Y-84050000D02*
G01*
X192850000Y-84050000D01*
X192850000Y-81050000D01*
X195350000Y-81050000D01*
X195350000Y-84050000D01*
G37*
G36*
X168469561Y-75757105D02*
G01*
X168630619Y-75813462D01*
X168775099Y-75904244D01*
X168895756Y-76024901D01*
X168986538Y-76169381D01*
X169042895Y-76330439D01*
X169062000Y-76500000D01*
X169042895Y-76669561D01*
X168986538Y-76830619D01*
X168895756Y-76975099D01*
X168775099Y-77095756D01*
X168630619Y-77186538D01*
X168469561Y-77242895D01*
X168300000Y-77262000D01*
X168130439Y-77242895D01*
X167969381Y-77186538D01*
X167824901Y-77095756D01*
X167704244Y-76975099D01*
X167613462Y-76830619D01*
X167557105Y-76669561D01*
X167538000Y-76500000D01*
X167557105Y-76330439D01*
X167613462Y-76169381D01*
X167704244Y-76024901D01*
X167824901Y-75904244D01*
X167969381Y-75813462D01*
X168130439Y-75757105D01*
X168300000Y-75738000D01*
X168469561Y-75757105D01*
G37*
G36*
X183245090Y-73169215D02*
G01*
X183432683Y-73226120D01*
X183605570Y-73318530D01*
X183757107Y-73442893D01*
X183881470Y-73594430D01*
X183973880Y-73767317D01*
X184030785Y-73954910D01*
X184050000Y-74150000D01*
X184030785Y-74345090D01*
X183973880Y-74532683D01*
X183881470Y-74705570D01*
X183757107Y-74857107D01*
X183605570Y-74981470D01*
X183432683Y-75073880D01*
X183245090Y-75130785D01*
X183050000Y-75150000D01*
X182854910Y-75130785D01*
X182667317Y-75073880D01*
X182494430Y-74981470D01*
X182342893Y-74857107D01*
X182218530Y-74705570D01*
X182126120Y-74532683D01*
X182069215Y-74345090D01*
X182050000Y-74150000D01*
X182069215Y-73954910D01*
X182126120Y-73767317D01*
X182218530Y-73594430D01*
X182342893Y-73442893D01*
X182494430Y-73318530D01*
X182667317Y-73226120D01*
X182854910Y-73169215D01*
X183050000Y-73150000D01*
X183245090Y-73169215D01*
G37*
G36*
X189745090Y-73169215D02*
G01*
X189932683Y-73226120D01*
X190105570Y-73318530D01*
X190257107Y-73442893D01*
X190381470Y-73594430D01*
X190473880Y-73767317D01*
X190530785Y-73954910D01*
X190550000Y-74150000D01*
X190530785Y-74345090D01*
X190473880Y-74532683D01*
X190381470Y-74705570D01*
X190257107Y-74857107D01*
X190105570Y-74981470D01*
X189932683Y-75073880D01*
X189745090Y-75130785D01*
X189550000Y-75150000D01*
X189354910Y-75130785D01*
X189167317Y-75073880D01*
X188994430Y-74981470D01*
X188842893Y-74857107D01*
X188718530Y-74705570D01*
X188626120Y-74532683D01*
X188569215Y-74345090D01*
X188550000Y-74150000D01*
X188569215Y-73954910D01*
X188626120Y-73767317D01*
X188718530Y-73594430D01*
X188842893Y-73442893D01*
X188994430Y-73318530D01*
X189167317Y-73226120D01*
X189354910Y-73169215D01*
X189550000Y-73150000D01*
X189745090Y-73169215D01*
G37*
G36*
X193242449Y-73645104D02*
G01*
X193284376Y-73645104D01*
X193319681Y-73653806D01*
X193355695Y-73657864D01*
X193402284Y-73674165D01*
X193448223Y-73685489D01*
X193475385Y-73699744D01*
X193503576Y-73709609D01*
X193551216Y-73739543D01*
X193597645Y-73763911D01*
X193616303Y-73780440D01*
X193636245Y-73792971D01*
X193681269Y-73837995D01*
X193723958Y-73875814D01*
X193734810Y-73891536D01*
X193747028Y-73903754D01*
X193785446Y-73964896D01*
X193819819Y-74014694D01*
X193824511Y-74027068D01*
X193830390Y-74036423D01*
X193858180Y-74115844D01*
X193879659Y-74172479D01*
X193880542Y-74179751D01*
X193882135Y-74184304D01*
X193895531Y-74303195D01*
X193900000Y-74340000D01*
X193895530Y-74376807D01*
X193882135Y-74495695D01*
X193880542Y-74500246D01*
X193879659Y-74507521D01*
X193858175Y-74564167D01*
X193830390Y-74643576D01*
X193824512Y-74652929D01*
X193819819Y-74665306D01*
X193785439Y-74715113D01*
X193747028Y-74776245D01*
X193734812Y-74788460D01*
X193723958Y-74804186D01*
X193681260Y-74842012D01*
X193636245Y-74887028D01*
X193616307Y-74899555D01*
X193597645Y-74916089D01*
X193551206Y-74940461D01*
X193503576Y-74970390D01*
X193475391Y-74980252D01*
X193448223Y-74994511D01*
X193402274Y-75005836D01*
X193355695Y-75022135D01*
X193319689Y-75026191D01*
X193284376Y-75034896D01*
X193242440Y-75034896D01*
X193200000Y-75039678D01*
X193157559Y-75034896D01*
X193115624Y-75034896D01*
X193080311Y-75026192D01*
X193044304Y-75022135D01*
X192997722Y-75005835D01*
X192951777Y-74994511D01*
X192924610Y-74980253D01*
X192896423Y-74970390D01*
X192848787Y-74940458D01*
X192802355Y-74916089D01*
X192783695Y-74899558D01*
X192763754Y-74887028D01*
X192718730Y-74842004D01*
X192676042Y-74804186D01*
X192665189Y-74788463D01*
X192652971Y-74776245D01*
X192614548Y-74715097D01*
X192580181Y-74665306D01*
X192575488Y-74652933D01*
X192569609Y-74643576D01*
X192541811Y-74564133D01*
X192520341Y-74507521D01*
X192519458Y-74500251D01*
X192517864Y-74495695D01*
X192504455Y-74376693D01*
X192500000Y-74340000D01*
X192504455Y-74303309D01*
X192517864Y-74184304D01*
X192519458Y-74179747D01*
X192520341Y-74172479D01*
X192541806Y-74115878D01*
X192569609Y-74036423D01*
X192575489Y-74027064D01*
X192580181Y-74014694D01*
X192614541Y-73964913D01*
X192652971Y-73903754D01*
X192665192Y-73891532D01*
X192676042Y-73875814D01*
X192718721Y-73838003D01*
X192763754Y-73792971D01*
X192783699Y-73780438D01*
X192802355Y-73763911D01*
X192848777Y-73739546D01*
X192896423Y-73709609D01*
X192924616Y-73699743D01*
X192951777Y-73685489D01*
X192997712Y-73674166D01*
X193044304Y-73657864D01*
X193080318Y-73653806D01*
X193115624Y-73645104D01*
X193157550Y-73645104D01*
X193200000Y-73640321D01*
X193242449Y-73645104D01*
G37*
G36*
X158327060Y-68998990D02*
G01*
X158537525Y-69055384D01*
X158735000Y-69147468D01*
X158913485Y-69272444D01*
X159067556Y-69426515D01*
X159192532Y-69605000D01*
X159284616Y-69802475D01*
X159341010Y-70012940D01*
X159360000Y-70230000D01*
X159341010Y-70447060D01*
X159284616Y-70657525D01*
X159192532Y-70855000D01*
X159067556Y-71033485D01*
X158913485Y-71187556D01*
X158735000Y-71312532D01*
X158537525Y-71404616D01*
X158327060Y-71461010D01*
X158110000Y-71480000D01*
X157892940Y-71461010D01*
X157682475Y-71404616D01*
X157485000Y-71312532D01*
X157306515Y-71187556D01*
X157152444Y-71033485D01*
X157027468Y-70855000D01*
X156935384Y-70657525D01*
X156878990Y-70447060D01*
X156860000Y-70230000D01*
X156878990Y-70012940D01*
X156935384Y-69802475D01*
X157027468Y-69605000D01*
X157152444Y-69426515D01*
X157306515Y-69272444D01*
X157485000Y-69147468D01*
X157682475Y-69055384D01*
X157892940Y-68998990D01*
X158110000Y-68980000D01*
X158327060Y-68998990D01*
G37*
G36*
X179327060Y-68998990D02*
G01*
X179537525Y-69055384D01*
X179735000Y-69147468D01*
X179913485Y-69272444D01*
X180067556Y-69426515D01*
X180192532Y-69605000D01*
X180284616Y-69802475D01*
X180341010Y-70012940D01*
X180360000Y-70230000D01*
X180341010Y-70447060D01*
X180284616Y-70657525D01*
X180192532Y-70855000D01*
X180067556Y-71033485D01*
X179913485Y-71187556D01*
X179735000Y-71312532D01*
X179537525Y-71404616D01*
X179327060Y-71461010D01*
X179110000Y-71480000D01*
X178892940Y-71461010D01*
X178682475Y-71404616D01*
X178485000Y-71312532D01*
X178306515Y-71187556D01*
X178152444Y-71033485D01*
X178027468Y-70855000D01*
X177935384Y-70657525D01*
X177878990Y-70447060D01*
X177860000Y-70230000D01*
X177878990Y-70012940D01*
X177935384Y-69802475D01*
X178027468Y-69605000D01*
X178152444Y-69426515D01*
X178306515Y-69272444D01*
X178485000Y-69147468D01*
X178682475Y-69055384D01*
X178892940Y-68998990D01*
X179110000Y-68980000D01*
X179327060Y-68998990D01*
G37*
G36*
X183245090Y-68669215D02*
G01*
X183432683Y-68726120D01*
X183605570Y-68818530D01*
X183757107Y-68942893D01*
X183881470Y-69094430D01*
X183973880Y-69267317D01*
X184030785Y-69454910D01*
X184050000Y-69650000D01*
X184030785Y-69845090D01*
X183973880Y-70032683D01*
X183881470Y-70205570D01*
X183757107Y-70357107D01*
X183605570Y-70481470D01*
X183432683Y-70573880D01*
X183245090Y-70630785D01*
X183050000Y-70650000D01*
X182854910Y-70630785D01*
X182667317Y-70573880D01*
X182494430Y-70481470D01*
X182342893Y-70357107D01*
X182218530Y-70205570D01*
X182126120Y-70032683D01*
X182069215Y-69845090D01*
X182050000Y-69650000D01*
X182069215Y-69454910D01*
X182126120Y-69267317D01*
X182218530Y-69094430D01*
X182342893Y-68942893D01*
X182494430Y-68818530D01*
X182667317Y-68726120D01*
X182854910Y-68669215D01*
X183050000Y-68650000D01*
X183245090Y-68669215D01*
G37*
G36*
X189745090Y-68669215D02*
G01*
X189932683Y-68726120D01*
X190105570Y-68818530D01*
X190257107Y-68942893D01*
X190381470Y-69094430D01*
X190473880Y-69267317D01*
X190530785Y-69454910D01*
X190550000Y-69650000D01*
X190530785Y-69845090D01*
X190473880Y-70032683D01*
X190381470Y-70205570D01*
X190257107Y-70357107D01*
X190105570Y-70481470D01*
X189932683Y-70573880D01*
X189745090Y-70630785D01*
X189550000Y-70650000D01*
X189354910Y-70630785D01*
X189167317Y-70573880D01*
X188994430Y-70481470D01*
X188842893Y-70357107D01*
X188718530Y-70205570D01*
X188626120Y-70032683D01*
X188569215Y-69845090D01*
X188550000Y-69650000D01*
X188569215Y-69454910D01*
X188626120Y-69267317D01*
X188718530Y-69094430D01*
X188842893Y-68942893D01*
X188994430Y-68818530D01*
X189167317Y-68726120D01*
X189354910Y-68669215D01*
X189550000Y-68650000D01*
X189745090Y-68669215D01*
G37*
G36*
X164995090Y-68419215D02*
G01*
X165182683Y-68476120D01*
X165355570Y-68568530D01*
X165507107Y-68692893D01*
X165631470Y-68844430D01*
X165723880Y-69017317D01*
X165780785Y-69204910D01*
X165800000Y-69400000D01*
X165780785Y-69595090D01*
X165723880Y-69782683D01*
X165631470Y-69955570D01*
X165507107Y-70107107D01*
X165355570Y-70231470D01*
X165182683Y-70323880D01*
X164995090Y-70380785D01*
X164800000Y-70400000D01*
X164604910Y-70380785D01*
X164417317Y-70323880D01*
X164244430Y-70231470D01*
X164092893Y-70107107D01*
X163968530Y-69955570D01*
X163876120Y-69782683D01*
X163819215Y-69595090D01*
X163800000Y-69400000D01*
X163819215Y-69204910D01*
X163876120Y-69017317D01*
X163968530Y-68844430D01*
X164092893Y-68692893D01*
X164244430Y-68568530D01*
X164417317Y-68476120D01*
X164604910Y-68419215D01*
X164800000Y-68400000D01*
X164995090Y-68419215D01*
G37*
G36*
X167525090Y-68419215D02*
G01*
X167712683Y-68476120D01*
X167885570Y-68568530D01*
X168037107Y-68692893D01*
X168161470Y-68844430D01*
X168253880Y-69017317D01*
X168310785Y-69204910D01*
X168330000Y-69400000D01*
X168310785Y-69595090D01*
X168253880Y-69782683D01*
X168161470Y-69955570D01*
X168037107Y-70107107D01*
X167885570Y-70231470D01*
X167712683Y-70323880D01*
X167525090Y-70380785D01*
X167330000Y-70400000D01*
X167134910Y-70380785D01*
X166947317Y-70323880D01*
X166774430Y-70231470D01*
X166622893Y-70107107D01*
X166498530Y-69955570D01*
X166406120Y-69782683D01*
X166349215Y-69595090D01*
X166330000Y-69400000D01*
X166349215Y-69204910D01*
X166406120Y-69017317D01*
X166498530Y-68844430D01*
X166622893Y-68692893D01*
X166774430Y-68568530D01*
X166947317Y-68476120D01*
X167134910Y-68419215D01*
X167330000Y-68400000D01*
X167525090Y-68419215D01*
G37*
G36*
X170065090Y-68419215D02*
G01*
X170252683Y-68476120D01*
X170425570Y-68568530D01*
X170577107Y-68692893D01*
X170701470Y-68844430D01*
X170793880Y-69017317D01*
X170850785Y-69204910D01*
X170870000Y-69400000D01*
X170850785Y-69595090D01*
X170793880Y-69782683D01*
X170701470Y-69955570D01*
X170577107Y-70107107D01*
X170425570Y-70231470D01*
X170252683Y-70323880D01*
X170065090Y-70380785D01*
X169870000Y-70400000D01*
X169674910Y-70380785D01*
X169487317Y-70323880D01*
X169314430Y-70231470D01*
X169162893Y-70107107D01*
X169038530Y-69955570D01*
X168946120Y-69782683D01*
X168889215Y-69595090D01*
X168870000Y-69400000D01*
X168889215Y-69204910D01*
X168946120Y-69017317D01*
X169038530Y-68844430D01*
X169162893Y-68692893D01*
X169314430Y-68568530D01*
X169487317Y-68476120D01*
X169674910Y-68419215D01*
X169870000Y-68400000D01*
X170065090Y-68419215D01*
G37*
G36*
X172605090Y-68419215D02*
G01*
X172792683Y-68476120D01*
X172965570Y-68568530D01*
X173117107Y-68692893D01*
X173241470Y-68844430D01*
X173333880Y-69017317D01*
X173390785Y-69204910D01*
X173410000Y-69400000D01*
X173390785Y-69595090D01*
X173333880Y-69782683D01*
X173241470Y-69955570D01*
X173117107Y-70107107D01*
X172965570Y-70231470D01*
X172792683Y-70323880D01*
X172605090Y-70380785D01*
X172410000Y-70400000D01*
X172214910Y-70380785D01*
X172027317Y-70323880D01*
X171854430Y-70231470D01*
X171702893Y-70107107D01*
X171578530Y-69955570D01*
X171486120Y-69782683D01*
X171429215Y-69595090D01*
X171410000Y-69400000D01*
X171429215Y-69204910D01*
X171486120Y-69017317D01*
X171578530Y-68844430D01*
X171702893Y-68692893D01*
X171854430Y-68568530D01*
X172027317Y-68476120D01*
X172214910Y-68419215D01*
X172410000Y-68400000D01*
X172605090Y-68419215D01*
G37*
G36*
X193242449Y-68565104D02*
G01*
X193284376Y-68565104D01*
X193319681Y-68573806D01*
X193355695Y-68577864D01*
X193402284Y-68594165D01*
X193448223Y-68605489D01*
X193475385Y-68619744D01*
X193503576Y-68629609D01*
X193551216Y-68659543D01*
X193597645Y-68683911D01*
X193616303Y-68700440D01*
X193636245Y-68712971D01*
X193681269Y-68757995D01*
X193723958Y-68795814D01*
X193734810Y-68811536D01*
X193747028Y-68823754D01*
X193785446Y-68884896D01*
X193819819Y-68934694D01*
X193824511Y-68947068D01*
X193830390Y-68956423D01*
X193858180Y-69035844D01*
X193879659Y-69092479D01*
X193880542Y-69099751D01*
X193882135Y-69104304D01*
X193895531Y-69223195D01*
X193900000Y-69260000D01*
X193895530Y-69296807D01*
X193882135Y-69415695D01*
X193880542Y-69420246D01*
X193879659Y-69427521D01*
X193858175Y-69484167D01*
X193830390Y-69563576D01*
X193824512Y-69572929D01*
X193819819Y-69585306D01*
X193785439Y-69635113D01*
X193747028Y-69696245D01*
X193734812Y-69708460D01*
X193723958Y-69724186D01*
X193681260Y-69762012D01*
X193636245Y-69807028D01*
X193616307Y-69819555D01*
X193597645Y-69836089D01*
X193551206Y-69860461D01*
X193503576Y-69890390D01*
X193475391Y-69900252D01*
X193448223Y-69914511D01*
X193402274Y-69925836D01*
X193355695Y-69942135D01*
X193319689Y-69946191D01*
X193284376Y-69954896D01*
X193242440Y-69954896D01*
X193200000Y-69959678D01*
X193157559Y-69954896D01*
X193115624Y-69954896D01*
X193080311Y-69946192D01*
X193044304Y-69942135D01*
X192997722Y-69925835D01*
X192951777Y-69914511D01*
X192924610Y-69900253D01*
X192896423Y-69890390D01*
X192848787Y-69860458D01*
X192802355Y-69836089D01*
X192783695Y-69819558D01*
X192763754Y-69807028D01*
X192718730Y-69762004D01*
X192676042Y-69724186D01*
X192665189Y-69708463D01*
X192652971Y-69696245D01*
X192614548Y-69635097D01*
X192580181Y-69585306D01*
X192575488Y-69572933D01*
X192569609Y-69563576D01*
X192541811Y-69484133D01*
X192520341Y-69427521D01*
X192519458Y-69420251D01*
X192517864Y-69415695D01*
X192504455Y-69296693D01*
X192500000Y-69260000D01*
X192504455Y-69223309D01*
X192517864Y-69104304D01*
X192519458Y-69099747D01*
X192520341Y-69092479D01*
X192541806Y-69035878D01*
X192569609Y-68956423D01*
X192575489Y-68947064D01*
X192580181Y-68934694D01*
X192614541Y-68884913D01*
X192652971Y-68823754D01*
X192665192Y-68811532D01*
X192676042Y-68795814D01*
X192718721Y-68758003D01*
X192763754Y-68712971D01*
X192783699Y-68700438D01*
X192802355Y-68683911D01*
X192848777Y-68659546D01*
X192896423Y-68629609D01*
X192924616Y-68619743D01*
X192951777Y-68605489D01*
X192997712Y-68594166D01*
X193044304Y-68577864D01*
X193080318Y-68573806D01*
X193115624Y-68565104D01*
X193157550Y-68565104D01*
X193200000Y-68560321D01*
X193242449Y-68565104D01*
G37*
M02*
