M48
; DRILL file {KiCad 7.0.10} date Saturday, March 16, 2024 at 01:49:12 PM
; FORMAT={-:-/ absolute / metric / decimal}
; #@! TF.CreationDate,2024-03-16T13:49:12+09:00
; #@! TF.GenerationSoftware,Kicad,Pcbnew,7.0.10
; #@! TF.FileFunction,MixedPlating,1,2
FMAT,2
METRIC
; #@! TA.AperFunction,Plated,PTH,ViaDrill
T1C0.300
; #@! TA.AperFunction,Plated,PTH,ComponentDrill
T2C0.700
; #@! TA.AperFunction,Plated,PTH,ComponentDrill
T3C0.762
; #@! TA.AperFunction,Plated,PTH,ComponentDrill
T4C1.000
; #@! TA.AperFunction,Plated,PTH,ComponentDrill
T5C1.100
; #@! TA.AperFunction,Plated,PTH,ComponentDrill
T6C2.000
; #@! TA.AperFunction,NonPlated,NPTH,ComponentDrill
T7C1.000
; #@! TA.AperFunction,NonPlated,NPTH,ComponentDrill
T8C2.000
%
G90
G05
T1
X6.0Y26.0
X6.0Y18.0
X6.0Y9.0
X14.0Y7.0
X14.9Y1.1
X17.0Y26.0
X17.0Y18.0
X19.0Y6.9
X20.0Y6.9
X21.1Y2.3
X24.0Y18.0
X25.0Y6.3
X26.3Y3.6
X26.4Y13.4
X27.2Y1.1
X28.1Y2.3
X32.9Y12.2
X33.0Y28.0
X33.0Y18.0
X33.0Y5.0
T2
X17.0Y3.0
X37.3Y30.64
X37.3Y25.56
T3
X12.4Y23.4
X12.4Y3.4
T4
X2.2Y3.6
X4.7Y3.6
X7.2Y3.6
X8.9Y30.5
X11.43Y30.5
X13.97Y30.5
X16.51Y30.5
X30.1Y9.85
X30.18Y6.8
X30.18Y4.26
X30.18Y1.72
X32.6Y9.85
X35.1Y9.85
T5
X27.15Y30.25
X27.15Y25.75
X33.65Y30.25
X33.65Y25.75
T7
X37.8Y6.8
X37.8Y4.26
X37.8Y1.72
T8
X2.21Y29.67
X2.21Y7.87
X23.21Y29.67
X23.21Y7.87
T6
G00X27.0Y17.1
M15
G01X27.0Y17.6
M16
G05
G00X38.2Y17.1
M15
G01X38.2Y17.6
M16
G05
M30
